<svg xmlns="http://www.w3.org/2000/svg" width="1.5em" height="1.5em" focusable="false"><g xmlns="http://www.w3.org/2000/svg" id="tuiIconDragLarge"><svg width="1.5em" height="1.5em" x="50%" y="50%" fill="none" overflow="visible" viewBox="0 0 24 24"><svg xmlns="http://www.w3.org/2000/svg" x="-12" y="-12"><path stroke="currentColor" stroke-linecap="round" stroke-linejoin="round" stroke-width="2" d="M9 12a1 1 0 1 0-2 0 1 1 0 0 0 2 0zM17 12a1 1 0 1 0-2 0 1 1 0 0 0 2 0zM9 5a1 1 0 1 0-2 0 1 1 0 0 0 2 0zM17 5a1 1 0 1 0-2 0 1 1 0 0 0 2 0zM9 19a1 1 0 1 0-2 0 1 1 0 0 0 2 0zM17 19a1 1 0 1 0-2 0 1 1 0 0 0 2 0z" vector-effect="non-scaling-stroke"/></svg></svg></g></svg>