<svg xmlns="http://www.w3.org/2000/svg" width="1.5em" height="1.5em"><g xmlns="http://www.w3.org/2000/svg" id="tuiIconHexagonLarge"><svg width="1.5em" height="1.5em" x="50%" y="50%" overflow="visible" viewBox="0 0 24 24"><svg x="-12" y="-12"><svg xmlns="http://www.w3.org/2000/svg" width="24" height="24" stroke="currentColor" stroke-linecap="round" stroke-linejoin="round" stroke-width="2" viewBox="0 0 24 24"><path d="M21 16V8a2 2 0 0 0-1-1.73l-7-4a2 2 0 0 0-2 0l-7 4A2 2 0 0 0 3 8v8a2 2 0 0 0 1 1.73l7 4a2 2 0 0 0 2 0l7-4A2 2 0 0 0 21 16z" vector-effect="non-scaling-stroke"/></svg></svg></svg></g></svg>