<svg xmlns="http://www.w3.org/2000/svg" width="1em" height="1em"><g xmlns="http://www.w3.org/2000/svg" id="tuiIconBatteryCharging"><svg width="1em" height="1em" x="50%" y="50%" overflow="visible" viewBox="0 0 16 16"><svg x="-8" y="-8"><svg xmlns="http://www.w3.org/2000/svg" width="16" height="16" stroke="currentColor" stroke-linecap="round" stroke-linejoin="round" stroke-width="3" viewBox="0 0 24 24"><path d="M5 18H3a2 2 0 0 1-2-2V8a2 2 0 0 1 2-2h3.19M15 6h2a2 2 0 0 1 2 2v8a2 2 0 0 1-2 2h-3.19"/><line x1="23" x2="23" y1="13" y2="11"/><polyline points="11 6 7 12 13 12 9 18"/></svg></svg></svg></g></svg>