<svg xmlns="http://www.w3.org/2000/svg" width="1em" height="1em"><g xmlns="http://www.w3.org/2000/svg" id="tuiIconTable"><svg width="1em" height="1em" x="50%" y="50%" overflow="visible" viewBox="0 0 16 16"><svg x="-8" y="-8"><svg xmlns="http://www.w3.org/2000/svg" width="16" height="16" stroke="currentColor" stroke-linecap="round" stroke-linejoin="round" stroke-width="3" viewBox="0 0 24 24"><path d="M9 3H5a2 2 0 0 0-2 2v4m6-6h10a2 2 0 0 1 2 2v4M9 3v18m0 0h10a2 2 0 0 0 2-2V9M9 21H5a2 2 0 0 1-2-2V9m0 0h18"/></svg></svg></svg></g></svg>