<svg xmlns="http://www.w3.org/2000/svg" width="1.5em" height="1.5em"><g xmlns="http://www.w3.org/2000/svg" id="tuiIconCommandLarge"><svg width="1.5em" height="1.5em" x="50%" y="50%" overflow="visible" viewBox="0 0 24 24"><svg x="-12" y="-12"><svg xmlns="http://www.w3.org/2000/svg" width="24" height="24" stroke="currentColor" stroke-linecap="round" stroke-linejoin="round" stroke-width="2" viewBox="0 0 24 24"><path d="M18 3a3 3 0 0 0-3 3v12a3 3 0 0 0 3 3 3 3 0 0 0 3-3 3 3 0 0 0-3-3H6a3 3 0 0 0-3 3 3 3 0 0 0 3 3 3 3 0 0 0 3-3V6a3 3 0 0 0-3-3 3 3 0 0 0-3 3 3 3 0 0 0 3 3h12a3 3 0 0 0 3-3 3 3 0 0 0-3-3z" vector-effect="non-scaling-stroke"/></svg></svg></svg></g></svg>