<svg xmlns="http://www.w3.org/2000/svg" width="1em" height="1em"><g xmlns="http://www.w3.org/2000/svg" id="tuiIconMessageCircle"><svg width="1em" height="1em" x="50%" y="50%" overflow="visible" viewBox="0 0 16 16"><svg x="-8" y="-8"><svg xmlns="http://www.w3.org/2000/svg" width="16" height="16" stroke="currentColor" stroke-linecap="round" stroke-linejoin="round" stroke-width="3" viewBox="0 0 24 24"><path d="M21 11.5a8.38 8.38 0 0 1-.9 3.8 8.5 8.5 0 0 1-7.6 4.7 8.38 8.38 0 0 1-3.8-.9L3 21l1.9-5.7a8.38 8.38 0 0 1-.9-3.8 8.5 8.5 0 0 1 4.7-7.6 8.38 8.38 0 0 1 3.8-.9h.5a8.48 8.48 0 0 1 8 8v.5z"/></svg></svg></svg></g></svg>