<svg xmlns="http://www.w3.org/2000/svg" width="1.5em" height="1.5em"><g xmlns="http://www.w3.org/2000/svg" id="tuiIconWifiOffLarge"><svg width="1.5em" height="1.5em" x="50%" y="50%" overflow="visible" viewBox="0 0 24 24"><svg x="-12" y="-12"><svg xmlns="http://www.w3.org/2000/svg" width="24" height="24" stroke="currentColor" stroke-linecap="round" stroke-linejoin="round" stroke-width="2" viewBox="0 0 24 24"><line x1="1" x2="23" y1="1" y2="23" vector-effect="non-scaling-stroke"/><path d="M16.72 11.06A10.94 10.94 0 0 1 19 12.55" vector-effect="non-scaling-stroke"/><path d="M5 12.55a10.94 10.94 0 0 1 5.17-2.39" vector-effect="non-scaling-stroke"/><path d="M10.71 5.05A16 16 0 0 1 22.58 9" vector-effect="non-scaling-stroke"/><path d="M1.42 9a15.91 15.91 0 0 1 4.7-2.88" vector-effect="non-scaling-stroke"/><path d="M8.53 16.11a6 6 0 0 1 6.95 0" vector-effect="non-scaling-stroke"/><line x1="12" x2="12.01" y1="20" y2="20" vector-effect="non-scaling-stroke"/></svg></svg></svg></g></svg>