<svg xmlns="http://www.w3.org/2000/svg" width="1.5em" height="1.5em" focusable="false"><g xmlns="http://www.w3.org/2000/svg" id="tuiIconTeXLarge"><svg width="1.5em" height="1.5em" x="50%" y="50%" fill="none" overflow="visible" viewBox="0 0 24 24"><svg xmlns="http://www.w3.org/2000/svg" x="-12" y="-12"><path stroke="currentColor" stroke-linecap="round" stroke-linejoin="round" stroke-width="2" d="M4 16V8H1H7" vector-effect="non-scaling-stroke"/><path stroke="currentColor" stroke-linecap="round" stroke-width="2" d="M9 13H12.6667C12.8508 13 13 12.8508 13 12.6667V12C13 10.8954 12.1046 10 11 10V10C9.89543 10 9 10.8954 9 12V13.7835C9 15.0076 9.99237 16 11.2165 16V16C11.7904 16 12.342 15.7774 12.7551 15.379L13 15.1429" vector-effect="non-scaling-stroke"/><path stroke="currentColor" stroke-linecap="round" stroke-linejoin="round" stroke-width="2" d="M16 8L18.5 12M21 16L18.5 12M18.5 12L16 16M18.5 12L21 8" vector-effect="non-scaling-stroke"/></svg></svg></g></svg>