<svg xmlns="http://www.w3.org/2000/svg" width="1em" height="1em"><g xmlns="http://www.w3.org/2000/svg" id="tuiIconPackage"><svg width="1em" height="1em" x="50%" y="50%" overflow="visible" viewBox="0 0 16 16"><svg x="-8" y="-8"><svg xmlns="http://www.w3.org/2000/svg" width="16" height="16" stroke="currentColor" stroke-linecap="round" stroke-linejoin="round" stroke-width="3" viewBox="0 0 24 24"><line x1="16.5" x2="7.5" y1="9.4" y2="4.21"/><path d="M21 16V8a2 2 0 0 0-1-1.73l-7-4a2 2 0 0 0-2 0l-7 4A2 2 0 0 0 3 8v8a2 2 0 0 0 1 1.73l7 4a2 2 0 0 0 2 0l7-4A2 2 0 0 0 21 16z"/><polyline points="3.27 6.96 12 12.01 20.73 6.96"/><line x1="12" x2="12" y1="22.08" y2="12"/></svg></svg></svg></g></svg>