<svg xmlns="http://www.w3.org/2000/svg" width="1.5em" height="1.5em"><g xmlns="http://www.w3.org/2000/svg" id="tuiIconMicOffLarge"><svg width="1.5em" height="1.5em" x="50%" y="50%" overflow="visible" viewBox="0 0 24 24"><svg x="-12" y="-12"><svg xmlns="http://www.w3.org/2000/svg" width="24" height="24" stroke="currentColor" stroke-linecap="round" stroke-linejoin="round" stroke-width="2" viewBox="0 0 24 24"><line x1="1" x2="23" y1="1" y2="23" vector-effect="non-scaling-stroke"/><path d="M9 9v3a3 3 0 0 0 5.12 2.12M15 9.34V4a3 3 0 0 0-5.94-.6" vector-effect="non-scaling-stroke"/><path d="M17 16.95A7 7 0 0 1 5 12v-2m14 0v2a7 7 0 0 1-.11 1.23" vector-effect="non-scaling-stroke"/><line x1="12" x2="12" y1="19" y2="23" vector-effect="non-scaling-stroke"/><line x1="8" x2="16" y1="23" y2="23" vector-effect="non-scaling-stroke"/></svg></svg></svg></g></svg>